<?xml version="1.0" encoding="utf-8"?>
<!-- Generator: Adobe Illustrator 15.0.0, SVG Export Plug-In . SVG Version: 6.00 Build 0)  -->
<!DOCTYPE svg PUBLIC "-//W3C//DTD SVG 1.1//EN" "http://www.w3.org/Graphics/SVG/1.1/DTD/svg11.dtd">
<svg version="1.1" xmlns="http://www.w3.org/2000/svg" xmlns:xlink="http://www.w3.org/1999/xlink" x="0px" y="0px" width="792px"
	 height="1224px" viewBox="0 0 792 1224" enable-background="new 0 0 792 1224" xml:space="preserve">
<g id="Layer_1">
	<rect fill="#FFFFFF" width="792" height="1224"/>
	<path fill="#FFFFFF" stroke="#000000" stroke-miterlimit="10" d="M640.003,1188v-186.072c0,0,59.655-83.802,55.395-221.581
		c-4.26-137.779,1.419-164.768-66.759-190.335c0,0,0-110.79-115.052-100.847c0,0-22.749-65.809-102.269-63.917
		c-59.658,1.419-82.384,38.35-82.384,38.35s-15.625-136.358-18.466-198.856c-2.839-62.497,22.727-225.843-83.804-228.684
		c-99.393-2.65-110.79,86.644-109.369,113.632c1.42,26.989,7.102,630.657,7.102,630.657s-42.61,45.454-22.726,103.689
		c19.885,58.234,45.454,99.428,49.714,129.255c4.261,29.83-1.42,174.351-1.42,174.351L640.003,1188z"/>
	<path fill="none" stroke="#000000" stroke-width="16" stroke-miterlimit="10" d="M183.132,1155.653
		c1.501-46.75,3.3-123.389-0.055-146.888c-2.977-20.838-12.895-43.201-24.378-69.095c-8.562-19.307-18.268-41.188-26.733-65.979
		c-12.943-37.905,13.624-69.002,15.869-71.537l9.097-9.358l-0.524-12.751c-0.232-24.677-5.704-604.674-7.144-632.038
		c-0.543-10.307,2.135-41.364,20.795-61.031c12.105-12.76,26.587-18.962,49.681-18.962c12.592,0,41.697,6.214,51.915,44.345
		c8.962,33.441,7.888,77.398,7.025,112.716c-0.385,15.821-0.719,29.484-0.19,41.12c2.857,62.874,17.998,195.435,18.641,201.046
		l11.437,99.809l47.465-86.373c2.162-2.918,18.075-22.523,56.049-23.426c0.873-0.021,1.729-0.032,2.584-0.032
		c50.458,0,66.66,37.241,68.715,42.562l7.697,24.268l25.266-2.993c3.935-0.34,7.784-0.51,11.438-0.51
		c28.827,0,47.516,9.997,58.808,31.464c9.263,17.604,9.989,36.494,10.035,38.116l-0.319,22.41l21.094,7.451
		c28.338,10.628,32.945,18.049,36.359,27.373c6.508,17.771,7.38,50.674,8.701,100.481c0.274,10.378,0.571,21.519,0.941,33.494
		c3.841,124.201-49.024,201.376-49.559,202.142l-5.934,8.333l0.082,10.117v154.036L183.132,1155.653z"/>
	<path fill="#FFFFFF" stroke="#000000" stroke-width="8" stroke-miterlimit="10" d="M214.528,89.627
		c-23.98,0-34.802,19.231-37.593,25.226c2.751,27.493,7.202,59.712,37.593,59.712c27.143,0,34.842-32.22,37.593-59.712
		C249.331,108.858,238.509,89.627,214.528,89.627z"/>
	<path d="M179.454,255.741c0,0,19.541-10.521,69.143-3.006C248.597,252.735,224.546,257.245,179.454,255.741z"/>
	<path d="M179.454,273.78c0,0,19.541-10.523,69.143-3.008C248.597,270.772,224.546,275.282,179.454,273.78z"/>
	<path d="M267.53,405.154c0,0-24.89,10.523-88.074,3.008C179.456,408.163,210.093,403.652,267.53,405.154z"/>
	<path d="M186.971,397.033c0,0,31.563-30.061,76.657-6.013C263.628,391.021,218.537,380.499,186.971,397.033z"/>
	<path d="M189.976,425.593c0,0,39.083,6.013,64.635-3.006C254.61,422.587,241.081,445.134,189.976,425.593z"/>
</g>
<g id="Layer_3">
</g>
</svg>
